#!OML:ASF C:\Vicon Data\Big\jianyuan-13\jianyuan\Session 1\Capture.male.ASF
:FULLY-SPECIFIED
:DEGREES
98
root -8.337110 17.584207 -17.947866 6.153445 10.182009 0.677894
lowerback -8.641628 1.812982 -1.076505 
upperback 3.230162 2.582462 -0.321641 
thorax 8.236843 1.211231 0.667679 
lowerneck -7.920982 -3.323228 2.477632 
upperneck 1.962167 -4.602153 -1.703551 
head 1.871429 -2.319659 -1.143583 
rclavicle 0.000000 0.000000 
rhumerus -24.768318 -1.035489 -91.105327 
rradius 41.844848 
rwrist 13.375073 
rhand -16.277372 -18.622682 
rfingers 0.000000 
rthumb 9.932536 -48.368333 
lclavicle 0.000000 0.000000 
lhumerus -48.037225 35.293932 61.276564 
lradius 24.211424 
lwrist -61.393891 
lhand -19.813493 -0.077182 
lfingers 0.000000 
lthumb 6.519842 29.802457 
rfemur -6.033618 2.794532 26.304241 
rtibia 22.488274 
rfoot -21.334821 -7.366653 
rtoes -26.607240 
lfemur -27.295844 -4.996675 -16.968710 
ltibia 14.394925 
lfoot -6.462108 7.556749 
ltoes -42.136023 
99
root -8.325785 17.580427 -17.885133 6.209981 10.197517 0.630007
lowerback -8.692008 1.809765 -1.088561 
upperback 3.180786 2.577019 -0.288527 
thorax 8.210826 1.207287 0.709315 
lowerneck -7.841919 -3.351641 2.479955 
upperneck 1.915173 -4.636915 -1.748673 
head 1.839986 -2.338281 -1.156466 
rclavicle 0.000000 0.000000 
rhumerus -24.851053 -0.860681 -91.176674 
rradius 42.333531 
rwrist 12.923777 
rhand -16.165480 -18.662066 
rfingers 0.000000 
rthumb 10.040476 -48.402578 
lclavicle 0.000000 0.000000 
lhumerus -48.271956 35.474914 61.015947 
lradius 24.149284 
lwrist -61.510187 
lhand -19.890423 -0.065869 
lfingers 0.000000 
lthumb 6.445578 29.816044 
rfemur -5.804972 2.712870 26.360849 
rtibia 22.368875 
rfoot -21.436798 -7.164845 
rtoes -26.356064 
lfemur -27.070789 -4.987767 -16.966901 
ltibia 13.104939 
lfoot -6.093510 8.042909 
ltoes -42.206686 
100
root -8.312262 17.576934 -17.823716 6.321350 10.236977 0.577594
lowerback -8.803155 1.818390 -0.999747 
upperback 3.134635 2.581991 -0.329474 
thorax 8.231460 1.215295 0.620255 
lowerneck -7.926139 -3.397928 2.376156 
upperneck 2.020008 -4.696017 -1.595442 
head 1.893461 -2.364033 -1.096569 
rclavicle 0.000000 0.000000 
rhumerus -24.854860 -0.716746 -91.401451 
rradius 42.779556 
rwrist 12.328573 
rhand -16.101729 -18.891438 
rfingers 0.000000 
rthumb 10.102011 -48.628925 
lclavicle 0.000000 0.000000 
lhumerus -48.412557 35.578984 60.783972 
lradius 24.204407 
lwrist -61.276096 
lhand -19.649684 -0.181543 
lfingers 0.000000 
lthumb 6.677991 29.693173 
rfemur -5.600188 3.082059 26.414415 
rtibia 22.267212 
rfoot -21.735865 -7.221057 
rtoes -25.094540 
lfemur -26.894811 -4.964160 -16.975927 
ltibia 11.813209 
lfoot -5.674278 8.496883 
ltoes -41.679511 
101
root -8.301107 17.571770 -17.756870 6.360486 10.230757 0.536569
lowerback -8.868439 1.812374 -1.019870 
upperback 3.093963 2.575415 -0.313200 
thorax 8.223954 1.210635 0.649199 
lowerneck -7.825179 -3.379953 2.424901 
upperneck 1.964279 -4.671616 -1.675691 
head 1.854853 -2.353740 -1.125635 
rclavicle 0.000000 0.000000 
rhumerus -24.948849 -0.537115 -91.495431 
rradius 43.250083 
rwrist 12.093126 
rhand -15.974249 -18.806720 
rfingers 0.000000 
rthumb 10.224933 -48.538285 
lclavicle 0.000000 0.000000 
lhumerus -48.583463 35.488567 60.752143 
lradius 24.274336 
lwrist -61.130924 
lhand -19.741951 -0.093783 
lfingers 0.000000 
lthumb 6.588942 29.783749 
rfemur -5.354236 3.061029 26.469947 
rtibia 22.167477 
rfoot -21.855120 -7.140140 
rtoes -24.883720 
lfemur -26.643463 -5.103473 -16.907030 
ltibia 10.661980 
lfoot -5.363803 9.088411 
ltoes -41.516004 
102
root -8.288691 17.561343 -17.693620 6.392542 10.170320 0.527238
lowerback -8.851048 1.787004 -1.055683 
upperback 3.053342 2.544176 -0.303457 
thorax 8.168468 1.193990 0.673135 
lowerneck -7.858070 -3.375447 2.418552 
upperneck 1.995383 -4.664694 -1.697228 
head 1.870825 -2.350862 -1.132681 
rclavicle 0.000000 0.000000 
rhumerus -25.026958 -0.223810 -91.633703 
rradius 43.728201 
rwrist 11.580619 
rhand -15.841521 -18.898866 
rfingers 0.000000 
rthumb 10.353055 -48.624042 
lclavicle 0.000000 0.000000 
lhumerus -48.686717 35.385066 60.754725 
lradius 24.263319 
lwrist -60.770697 
lhand -19.833487 -0.042459 
lfingers 0.000000 
lthumb 6.500546 29.837756 
rfemur -5.128883 2.904376 26.511814 
rtibia 21.994809 
rfoot -21.677125 -7.285035 
rtoes -26.420618 
lfemur -26.468933 -4.997540 -16.979581 
ltibia 9.738810 
lfoot -4.988920 9.476080 
ltoes -42.322664 
103
root -8.276709 17.555227 -17.625870 6.467766 10.148565 0.530640
lowerback -8.958596 1.760977 -1.074415 
upperback 3.030899 2.515421 -0.335957 
thorax 8.207944 1.179434 0.648258 
lowerneck -7.858482 -3.364688 2.516821 
upperneck 2.014188 -4.656772 -1.773955 
head 1.873663 -2.348058 -1.174042 
rclavicle 0.000000 0.000000 
rhumerus -25.050923 0.058344 -91.852390 
rradius 44.219762 
rwrist 11.107337 
rhand -15.864840 -19.044928 
rfingers 0.000000 
rthumb 10.330534 -48.771157 
lclavicle 0.000000 0.000000 
lhumerus -48.802590 35.408337 60.610599 
lradius 24.287386 
lwrist -60.489544 
lhand -19.603468 -0.149128 
lfingers 0.000000 
lthumb 6.722613 29.724156 
rfemur -4.891210 2.952532 26.529217 
rtibia 21.858827 
rfoot -21.732731 -7.361361 
rtoes -26.544724 
lfemur -26.326530 -5.036483 -16.990227 
ltibia 8.928039 
lfoot -4.712341 9.876283 
ltoes -41.611469 
